<svg id="Capa_1" enable-background="new 0 0 512 512" height="512" viewBox="0 0 512 512" width="512" xmlns="http://www.w3.org/2000/svg"><g><g><path d="m155.007 478.083h-124.243c-11.467 0-20.764-9.296-20.764-20.764v-328.461h492v328.461c0 11.467-9.296 20.764-20.764 20.764h-235.817" fill="#faf7f5"/><path d="m481.236 52.581h-450.472c-11.468 0-20.764 9.296-20.764 20.764v55.513h492v-55.513c0-11.468-9.296-20.764-20.764-20.764z" fill="#ff5d7d"/><g fill="#ccf5fc"><g><path d="m66.234 173.279h58.596v58.596h-58.596z"/><path d="m173.213 173.279h58.596v58.596h-58.596z"/><path d="m280.191 173.279h58.596v58.596h-58.596z"/><path d="m387.17 173.279h58.596v58.596h-58.596z"/></g><g><path d="m66.234 274.172h58.596v58.596h-58.596z"/><path d="m173.213 274.172h58.596v58.596h-58.596z"/><path d="m387.17 274.172h58.596v58.596h-58.596z"/></g><g><path d="m66.234 375.066h58.596v58.596h-58.596z"/><path d="m173.213 375.066h58.596v58.596h-58.596z"/><path d="m280.191 375.066h58.596v58.596h-58.596z"/></g></g><path d="m502 381.811h-75.509c-11.467 0-20.764 9.296-20.764 20.764v75.508z" fill="#fff2a0"/><path d="m336.549 313.578c0-20.736-27.059-46.405-27.059-46.405s-27.059 25.604-27.059 46.405c0 14.944 12.115 27.06 27.059 27.06 14.944-.001 27.059-12.116 27.059-27.06z" fill="#ff9eb1"/></g><g><g><path d="m209.63 474.26c-1.613-3.936-5.708-6.454-9.949-6.147-4.147.3-7.752 3.231-8.896 7.224-1.151 4.017.395 8.444 3.793 10.875 3.351 2.398 7.94 2.466 11.372.189 3.921-2.603 5.486-7.805 3.68-12.141z"/><path d="m134.83 173.279c0-5.523-4.477-10-10-10h-58.596c-5.523 0-10 4.477-10 10v58.596c0 5.523 4.477 10 10 10h58.596c5.523 0 10-4.477 10-10zm-20 48.596h-38.596v-38.596h38.596z"/><path d="m173.213 241.875h58.596c5.523 0 10-4.477 10-10v-58.596c0-5.523-4.477-10-10-10h-58.596c-5.523 0-10 4.477-10 10v58.596c0 5.523 4.477 10 10 10zm10-58.596h38.596v38.596h-38.596z"/><path d="m348.787 173.279c0-5.523-4.477-10-10-10h-58.596c-5.523 0-10 4.477-10 10v58.596c0 5.523 4.477 10 10 10h58.596c5.523 0 10-4.477 10-10zm-20 48.596h-38.596v-38.596h38.596z"/><path d="m387.17 241.875h58.596c5.523 0 10-4.477 10-10v-58.596c0-5.523-4.477-10-10-10h-58.596c-5.523 0-10 4.477-10 10v58.596c0 5.523 4.477 10 10 10zm10-58.596h38.596v38.596h-38.596z"/><path d="m134.83 274.172c0-5.523-4.477-10-10-10h-58.596c-5.523 0-10 4.477-10 10v58.596c0 5.523 4.477 10 10 10h58.596c5.523 0 10-4.477 10-10zm-20 48.596h-38.596v-38.596h38.596z"/><path d="m163.213 332.768c0 5.523 4.477 10 10 10h58.596c5.523 0 10-4.477 10-10v-58.596c0-5.523-4.477-10-10-10h-58.596c-5.523 0-10 4.477-10 10zm20-48.596h38.596v38.596h-38.596z"/><path d="m377.17 332.768c0 5.523 4.477 10 10 10h58.596c5.523 0 10-4.477 10-10v-58.596c0-5.523-4.477-10-10-10h-58.596c-5.523 0-10 4.477-10 10zm20-48.596h38.596v38.596h-38.596z"/><path d="m124.83 365.066h-58.596c-5.523 0-10 4.477-10 10v58.596c0 5.523 4.477 10 10 10h58.596c5.523 0 10-4.477 10-10v-58.596c0-5.523-4.478-10-10-10zm-10 58.596h-38.596v-38.596h38.596z"/><path d="m241.809 433.662v-58.596c0-5.523-4.477-10-10-10h-58.596c-5.523 0-10 4.477-10 10v58.596c0 5.523 4.477 10 10 10h58.596c5.522 0 10-4.477 10-10zm-20-10h-38.596v-38.596h38.596z"/><path d="m270.191 433.662c0 5.523 4.477 10 10 10h58.596c5.523 0 10-4.477 10-10v-58.596c0-5.523-4.477-10-10-10h-58.596c-5.523 0-10 4.477-10 10zm20-48.596h38.596v38.596h-38.596z"/><path d="m512 73.345c0-16.963-13.801-30.764-30.764-30.764h-54.768v-8.664c0-5.523-4.477-10-10-10s-10 4.477-10 10v8.664h-86.979v-8.664c0-5.523-4.477-10-10-10s-10 4.477-10 10v8.664h-86.979v-8.664c0-5.523-4.477-10-10-10s-10 4.477-10 10v8.664h-86.979v-8.664c0-5.523-4.477-10-10-10s-10 4.477-10 10v8.664h-54.767c-16.963 0-30.764 13.8-30.764 30.764v383.975c0 16.963 13.801 30.764 30.764 30.764h124.243c5.523 0 10-4.477 10-10s-4.477-10-10-10h-124.243c-5.935 0-10.764-4.829-10.764-10.764v-318.462h472v232.953h-65.508c-16.963 0-30.764 13.801-30.764 30.764v65.508h-150.309c-5.523 0-10 4.477-10 10s4.477 10 10 10h235.817c16.963 0 30.764-13.8 30.764-30.764zm-492 45.513v-45.513c0-5.935 4.829-10.764 10.764-10.764h54.768v18.138h-5.702c-5.523 0-10 4.477-10 10s4.477 10 10 10h31.404c5.523 0 10-4.477 10-10s-4.477-10-10-10h-5.702v-18.138h86.979v18.138h-5.702c-5.523 0-10 4.477-10 10s4.477 10 10 10h31.404c5.523 0 10-4.477 10-10s-4.477-10-10-10h-5.702v-18.138h86.979v18.138h-5.702c-5.523 0-10 4.477-10 10s4.477 10 10 10h31.404c5.523 0 10-4.477 10-10s-4.477-10-10-10h-5.702v-18.138h86.979v18.138h-5.702c-5.523 0-10 4.477-10 10s4.477 10 10 10h31.404c5.523 0 10-4.477 10-10s-4.477-10-10-10h-5.702v-18.138h54.768c5.935 0 10.764 4.829 10.764 10.764v45.513zm395.728 283.717c0-5.935 4.829-10.764 10.764-10.764h51.366l-62.13 62.13zm65.508 65.508h-51.366l62.13-62.129v51.366c0 5.934-4.829 10.763-10.764 10.763z"/><path d="m316.372 259.918c-3.854-3.656-9.896-3.661-13.755-.009-3.09 2.923-30.186 29.267-30.186 53.669 0 20.435 16.625 37.06 37.059 37.06 20.435 0 37.06-16.625 37.06-37.06-.001-24.331-27.09-50.73-30.178-53.66zm-6.883 70.719c-9.406 0-17.059-7.653-17.059-17.06 0-9.25 8.79-22.359 17.052-31.887 8.27 9.548 17.066 22.668 17.066 31.887.001 9.407-7.652 17.06-17.059 17.06z"/></g></g></g></svg>