<svg id="Layer_1" enable-background="new 0 0 128 128" height="512" viewBox="0 0 128 128" width="512" xmlns="http://www.w3.org/2000/svg"><path d="m113.983 49.066h-.94v-3.558c0-3.064-2.493-5.558-5.558-5.558s-5.558 2.493-5.558 5.558v4.558 17.543 37.3c0 .013.007.024.008.037.004.111.02.222.062.329l4.558 11.582c.15.383.52.634.931.634s.78-.251.931-.634l4.558-11.582c.042-.106.058-.218.062-.329 0-.013.008-.024.008-.037v-37.3-16.543h.94c.552 0 1 .448 1 1v21.858l-.975 3.045c-.169.525.121 1.089.647 1.257.102.032.204.048.305.048.424 0 .816-.271.952-.695l1.022-3.193c.032-.099.048-.201.048-.305v-22.015c-.001-1.654-1.346-3-3.001-3z" fill="#e6e7e8"/><path d="m98.899 35.589c-.01-.032-.018-.063-.031-.093-.046-.104-.104-.203-.185-.289l-19.389-20.388c-.086-.09-.188-.155-.297-.206-.031-.015-.062-.024-.095-.036-.089-.032-.179-.05-.272-.056-.021-.001-.04-.012-.061-.012h-59.552c-2.206 0-4 1.794-4 4v94.982c0 2.206 1.794 4 4 4h75.941c2.206 0 4-1.794 4-4v-77.595c0-.021-.01-.04-.012-.061-.005-.084-.021-.165-.047-.246z" fill="#e6e7e8"/><path d="m98.928 63.609h9.115v37.3h-9.115z" fill="#ffd7e5"/><path d="m98.928 46.066h9.115v17.543h-9.115z" fill="#fa759e"/><path d="m108.043 46.066h-9.115v-4.557c0-2.517 2.04-4.557 4.557-4.557 2.517 0 4.557 2.04 4.557 4.557v4.557z" fill="#6dc9f7"/><path d="m103.485 112.491-4.557-11.582h9.115z" fill="#fa759e"/><path d="m93.966 31.897v77.594c0 1.657-1.343 3-3 3h-75.941c-1.657 0-3-1.343-3-3v-94.982c0-1.657 1.343-3 3-3h59.553z" fill="#d4fbff"/><path d="m40.536 47.417-1.118-2.94h-9.522l-1.118 3.003c-.437 1.172-.809 1.962-1.118 2.372s-.815.615-1.518.615c-.596 0-1.124-.218-1.582-.655s-.687-.932-.687-1.486c0-.32.053-.65.16-.991s.282-.815.527-1.422l5.991-15.209c.17-.437.375-.961.615-1.574.24-.612.495-1.121.767-1.526s.628-.732 1.07-.983c.442-.25.988-.375 1.638-.375.66 0 1.212.125 1.654.375s.799.572 1.07.967c.272.394.501.817.687 1.27s.423 1.057.711 1.813l6.119 15.113c.479 1.15.719 1.986.719 2.508 0 .543-.226 1.041-.679 1.494s-.998.679-1.638.679c-.373 0-.692-.067-.959-.2-.266-.133-.49-.314-.671-.543s-.375-.58-.583-1.054c-.208-.471-.386-.889-.535-1.251zm-9.394-6.502h6.997l-3.531-9.665z" fill="#fa759e"/><path d="m56.048 46.698c-1.138 0-2.061-.923-2.061-2.061v-4.026h-4.057c-1.138 0-2.061-.923-2.061-2.061v-.064c0-1.138.923-2.061 2.061-2.061h4.058v-4.058c0-1.138.923-2.061 2.061-2.061 1.138 0 2.061.923 2.061 2.061v4.058h4.09c1.138 0 2.061.923 2.061 2.061v.064c0 1.138-.923 2.061-2.061 2.061h-4.09v4.026c-.001 1.138-.923 2.061-2.062 2.061z" fill="#fa759e"/><path d="m93.958 31.897h-16.388c-1.657 0-3-1.343-3-3v-17.388z" fill="#6dc9f7"/><path d="m77.57 28.897v-14.233l-3-3.155v17.388c0 1.657 1.343 3 3 3h3c-1.657 0-3-1.343-3-3z" fill="#fff"/><g fill="#3a2c60"><path d="m109.983 45.066h-.94v-3.558c0-3.064-2.493-5.558-5.558-5.558s-5.558 2.493-5.558 5.558v4.558 17.543 37.3c0 .013.007.024.008.037.004.111.02.222.062.329l4.558 11.582c.15.383.52.634.931.634s.78-.251.931-.634l4.558-11.582c.042-.106.058-.218.062-.329 0-.013.008-.024.008-.037v-37.3-16.543h.94c.552 0 1 .448 1 1v21.858l-.975 3.045c-.169.525.121 1.089.647 1.257.102.032.204.048.305.048.424 0 .816-.271.952-.695l1.022-3.193c.032-.099.048-.201.048-.305v-22.015c-.001-1.654-1.346-3-3.001-3zm-10.055 19.543h7.115v35.3h-7.115zm7.115-2h-7.115v-15.543h7.115zm-7.115-21.1c0-1.962 1.596-3.558 3.558-3.558s3.558 1.596 3.558 3.558v3.558h-7.115v-3.558zm3.557 68.252-3.09-7.852h6.18z"/><path d="m39.697 30.317c-.292-.766-.532-1.379-.721-1.837-.212-.514-.477-1.004-.789-1.457-.356-.518-.828-.944-1.4-1.27-.592-.335-1.313-.505-2.146-.505-.821 0-1.537.17-2.132.506-.577.328-1.05.763-1.407 1.295-.312.465-.603 1.043-.866 1.718l-6.604 16.773c-.258.64-.442 1.139-.554 1.498-.136.435-.205.868-.205 1.288 0 .824.345 1.589.997 2.21.648.618 1.412.932 2.271.932 1.284 0 1.969-.552 2.316-1.014.376-.5.775-1.334 1.257-2.626l.875-2.352h8.138l.874 2.295c.003.008.006.016.009.023.151.369.334.795.544 1.274.243.558.478.975.716 1.275.272.345.612.62 1.008.817.406.203.879.306 1.405.306.899 0 1.71-.337 2.344-.972.646-.644.973-1.385.973-2.201 0-.672-.253-1.591-.792-2.884zm4.516 18.766c-.263.263-.559.386-.93.386-.21 0-.387-.033-.512-.096-.134-.066-.243-.154-.333-.269-.072-.091-.227-.32-.451-.836-.202-.46-.376-.866-.521-1.219l-1.114-2.928c-.147-.389-.52-.645-.935-.645h-9.521c-.418 0-.791.26-.938.651l-1.118 3.003c-.524 1.409-.839 1.934-.979 2.12-.207.274-1.042.381-1.611-.162-.333-.318-.376-.575-.376-.763 0-.218.038-.45.113-.692.102-.322.269-.771.504-1.354l6.607-16.784c.211-.541.436-.99.665-1.333.185-.275.425-.495.732-.67.583-.327 1.737-.323 2.306 0 .312.177.554.394.739.663.232.337.43.702.587 1.086.185.445.417 1.041.709 1.806l6.122 15.123c.579 1.39.642 1.948.642 2.124 0 .174-.04.442-.387.789z"/><path d="m35.548 30.906c-.145-.396-.529-.668-.942-.657-.421.001-.796.266-.938.662l-3.468 9.666c-.109.307-.063.647.124.913.187.267.492.425.817.425h6.998c.326 0 .633-.159.819-.427.188-.268.232-.609.12-.916zm-2.986 9.009 2.055-5.729 2.093 5.729z"/><path d="m56.048 29.307c-1.688 0-3.061 1.373-3.061 3.062v3.058h-3.057c-1.688 0-3.062 1.373-3.062 3.125 0 1.688 1.373 3.061 3.062 3.061h3.058v3.025c0 1.688 1.373 3.062 3.061 3.062s3.062-1.373 3.062-3.062v-3.025h3.09c1.688 0 3.061-1.373 3.061-3.125 0-1.688-1.373-3.061-3.061-3.061h-3.09v-3.058c-.002-1.689-1.375-3.062-3.063-3.062zm6.151 8.119c.585 0 1.061.476 1.061 1.125 0 .585-.476 1.061-1.061 1.061h-4.09c-.553 0-1 .447-1 1v4.025c0 .585-.477 1.062-1.062 1.062s-1.061-.477-1.061-1.062v-4.025c0-.553-.447-1-1-1h-4.056c-.585 0-1.062-.476-1.062-1.125 0-.585.477-1.061 1.062-1.061h4.058c.553 0 1-.447 1-1v-4.058c0-.585.476-1.062 1.061-1.062s1.062.477 1.062 1.062v4.058c0 .553.447 1 1 1z"/><path d="m12.017 47.469c.553 0 1-.447 1-1v-9.771c0-.553-.447-1-1-1s-1 .447-1 1v9.771c0 .552.447 1 1 1z"/><path d="m94.899 31.589c-.01-.032-.018-.063-.031-.093-.046-.104-.104-.203-.185-.289l-19.389-20.388c-.086-.09-.188-.155-.297-.206-.031-.015-.062-.024-.095-.036-.089-.032-.179-.05-.272-.056-.021-.001-.04-.012-.061-.012h-59.552c-2.206 0-4 1.794-4 4v17.406c0 .553.447 1 1 1s1-.447 1-1v-17.406c0-1.103.897-2 2-2h58.553v16.388c0 2.206 1.794 4 4 4h15.389v76.595c0 1.103-.897 2-2 2h-75.942c-1.103 0-2-.897-2-2v-58.703c0-.553-.447-1-1-1s-1 .447-1 1v58.702c0 2.206 1.794 4 4 4h75.941c2.206 0 4-1.794 4-4v-77.595c0-.021-.01-.04-.012-.061-.005-.084-.021-.165-.047-.246zm-17.33-.693c-1.103 0-2-.897-2-2v-14.884l16.058 16.885h-14.058z"/><path d="m23.235 62.552c0 .553.447 1 1 1h57.487c.553 0 1-.447 1-1s-.447-1-1-1h-57.487c-.552 0-1 .447-1 1z"/><path d="m81.723 72.857h-57.488c-.553 0-1 .447-1 1s.447 1 1 1h57.487c.553 0 1-.447 1-1s-.447-1-.999-1z"/><path d="m82.723 85.162c0-.553-.447-1-1-1h-57.488c-.553 0-1 .447-1 1s.447 1 1 1h57.487c.553 0 1.001-.447 1.001-1z"/><path d="m24.235 95.467c-.553 0-1 .447-1 1s.447 1 1 1h41.332c.553 0 1-.447 1-1s-.447-1-1-1z"/></g></svg>