<svg viewBox="0 0 512 512" xmlns="http://www.w3.org/2000/svg"><g id="filled_outlind" data-name="filled outlind"><path d="m200 288h32v96h-24z" fill="#f6bb92"/><path d="m232 224h128v168h-128z" fill="#0296e5"/><path d="m360 288v56h-125a27 27 0 0 0 -27 27v21h170a30 30 0 0 0 30-30v-74z" fill="#fdc9a6"/><path d="m472 376h-16a8 8 0 0 1 0-16h16a8 8 0 0 0 0-16h-16a8 8 0 0 1 0-16h16a24 24 0 0 1 0 48z" fill="#e82f3e"/><path d="m272 184h48v40a33.941 33.941 0 0 1 -48 0z" fill="#fdc9a6"/><path d="m320 184v25.58a48.07 48.07 0 0 1 -48 0v-25.58z" fill="#fdc9a6"/><path d="m320 184v25.58a48.07 48.07 0 0 1 -48 0v-25.58z" fill="#f6bb92"/><path d="m184 224h48a0 0 0 0 1 0 0v34a30 30 0 0 1 -30 30h-18a0 0 0 0 1 0 0v-64a0 0 0 0 1 0 0z" fill="#eaeae8" transform="matrix(-1 0 0 -1 416 512)"/><path d="m360 104h-16l-24-16h-72a35.1 35.1 0 0 1 -24-33.3v-14.7h88a48 48 0 0 1 48 48z" fill="#683b0d"/><path d="m24 392h464v32h-464z" fill="#fbb540"/><path d="m40 424h32v64h-32z" fill="#c38325"/><path d="m440 424h32v64h-32z" fill="#c38325"/><path d="m72 424h368v64h-368z" fill="#ea9d2d"/><path d="m424 392h64v32h-64z" fill="#c38325"/><path d="m296 200a48 48 0 0 1 -48-48v-64h72l24 16v48a48 48 0 0 1 -48 48z" fill="#fdc9a6"/><g fill="#683b0d"><circle cx="272" cy="128" r="10"/><circle cx="320" cy="128" r="10"/><path d="m296 160a7.976 7.976 0 0 1 -5.657-2.343l-8-8a8 8 0 0 1 -1.5-9.235l8-16a8 8 0 1 1 14.31 7.156l-5.421 10.842 3.923 3.923a8 8 0 0 1 -5.655 13.657z"/><path d="m296 179.752a43.8 43.8 0 0 1 -19.578-4.6 8 8 0 0 1 7.156-14.31 27.917 27.917 0 0 0 24.844 0 8 8 0 1 1 7.156 14.31 43.8 43.8 0 0 1 -19.578 4.6z"/></g><path d="m236 104h12a0 0 0 0 1 0 0v40a0 0 0 0 1 0 0h-12a20 20 0 0 1 -20-20 20 20 0 0 1 20-20z" fill="#fdc9a6"/><path d="m364 104h12a0 0 0 0 1 0 0v40a0 0 0 0 1 0 0h-12a20 20 0 0 1 -20-20 20 20 0 0 1 20-20z" fill="#fdc9a6" transform="matrix(-1 0 0 -1 720 248)"/><path d="m360 224h18a30 30 0 0 1 30 30v34a0 0 0 0 1 0 0h-48a0 0 0 0 1 0 0v-64a0 0 0 0 1 0 0z" fill="#eaeae8"/><path d="m224 392h-176l-24-128h176z" fill="#cbcbcb"/><circle cx="120" cy="328" fill="#c4f8ff" r="16"/><path d="m400 328h56v64h-56z" fill="#ff6268"/><path d="m424 328h32v64h-32z" fill="#e82f3e"/><path d="m72 424h368v24h-368z" fill="#d18d28"/><path d="m440 424h32v24h-32z" fill="#97661d"/><path d="m40 424h32v24h-32z" fill="#97661d"/><circle cx="272" cy="128" r="10"/><circle cx="320" cy="128" r="10"/><path d="m282.343 149.657 8 8a8 8 0 1 0 11.314-11.314l-3.923-3.923 5.421-10.842a8 8 0 1 0 -14.31-7.156l-8 16a8 8 0 0 0 1.498 9.235z"/><path d="m283.578 160.845a8 8 0 0 0 -7.156 14.31 43.989 43.989 0 0 0 39.156 0 8 8 0 1 0 -7.156-14.31 27.917 27.917 0 0 1 -24.844 0z"/><path d="m472 376a24 24 0 0 0 0-48h-8a8 8 0 0 0 -8-8h-40v-66a38.043 38.043 0 0 0 -38-38h-50v-18.083a55.966 55.966 0 0 0 24-45.917h4a28 28 0 0 0 12-53.293v-10.707a56.064 56.064 0 0 0 -56-56h-88a8 8 0 0 0 -8 8v14.7a43.032 43.032 0 0 0 24 38.631v2.669h-4a28 28 0 0 0 0 56h4a55.966 55.966 0 0 0 24 45.917v18.083h-50a38.043 38.043 0 0 0 -38 38v2h-152a8 8 0 0 0 -7.863 9.474l22.224 118.526h-14.361a8 8 0 0 0 -8 8v32a8 8 0 0 0 8 8h8v56a8 8 0 0 0 8 8h432a8 8 0 0 0 8-8v-56h8a8 8 0 0 0 8-8v-32a8 8 0 0 0 -8-8h-24v-8zm-8-32h8a8 8 0 0 1 0 16h-8zm-224-208h-4a12 12 0 0 1 0-24h4zm168 200h40v48h-40zm-40-104h10a22.025 22.025 0 0 1 22 22v26h-32zm0-108a12.013 12.013 0 0 1 -12 12h-4v-24h4a12.013 12.013 0 0 1 12 12zm-136-69.3v-6.7h80a40.045 40.045 0 0 1 40 40v8h-5.578l-21.984-14.656a7.993 7.993 0 0 0 -4.438-1.344h-70.616a27.061 27.061 0 0 1 -17.384-25.3zm24 97.3v-56h61.578l18.422 12.281v43.719a40 40 0 0 1 -80 0zm56 53.659v14.762a26 26 0 0 1 -32 0v-14.762a55.848 55.848 0 0 0 32 0zm-72 26.341h28.571c.107 0 .21-.012.316-.016a41.957 41.957 0 0 0 54.207.016h28.906v104h-112zm120 120a8 8 0 0 0 8-8v-48h32v24a8 8 0 0 0 -8 8v50.968a21.829 21.829 0 0 1 -14 5.032h-147.361l-6-32zm-168-98a22.025 22.025 0 0 1 22-22h10v48h-12.861l-3.276-17.474a8 8 0 0 0 -7.863-6.526h-8zm32 42v40h-2.361l-7.5-40zm-190.36-24h159.72l21 112h-159.72zm30.36 208h-16v-48h16zm-32-64v-16h384v16zm400 64h-352v-48h352zm32 0h-16v-48h16zm16-80v16h-48v-16z"/><path d="m120 352a24 24 0 1 0 -24-24 24.027 24.027 0 0 0 24 24zm0-32a8 8 0 1 1 -8 8 8.009 8.009 0 0 1 8-8z"/></g></svg>