<svg id="Capa_1" enable-background="new 0 0 512 512" height="512" viewBox="0 0 512 512" width="512" xmlns="http://www.w3.org/2000/svg"><g><g><path d="m194.255 459h123.489v25c0 11.046-8.954 20-20 20h-83.489c-11.046 0-20-8.954-20-20z" fill="#bed8fb"/><path d="m194.255 459h123.489v18h-123.489z" fill="#a3caf7"/><path d="m137.255 92v108.279c0 25.037 4.575 49.863 13.5 73.255 8.925 23.392 13.5 48.218 13.5 73.255v82.211c0 16.569 13.432 30 30 30h123.489c16.569 0 30-13.431 30-30v-82.211c0-25.037 4.575-49.863 13.5-73.255 8.925-23.392 13.5-48.218 13.5-73.255v-108.279c0-16.569-13.431-30-30-30h-177.489c-16.568 0-30 13.432-30 30z" fill="#434d59"/><g><path d="m317.745 441h-123.49c-16.568 0-30-13.432-30-30v18c0 16.568 13.432 30 30 30h123.489c16.569 0 30-13.432 30-30v-18c.001 16.568-13.431 30-29.999 30z" fill="#3b434d"/></g><path d="m318.234 90.417h-124.468v-82.417l31.115 18 31.116-18 31.118 18 31.119-18z" fill="#eceaec"/><path d="m193.766 72.417h124.469v18h-124.469z" fill="#dad8db"/><path d="m324.522 222.312h-137.044c-5.728 0-10.372-4.643-10.372-10.372v-73.676c0-5.728 4.644-10.372 10.372-10.372h137.044c5.728 0 10.372 4.644 10.372 10.372v73.676c0 5.729-4.644 10.372-10.372 10.372z" fill="#b3e59f"/><path d="m324.522 204.312h-137.044c-5.728 0-10.372-4.643-10.372-10.372v18c0 5.728 4.644 10.372 10.372 10.372h137.044c5.728 0 10.372-4.643 10.372-10.372v-18c0 5.729-4.644 10.372-10.372 10.372z" fill="#95d6a4"/></g><g><path d="m324.657 120.128h-74.689c-4.15 0-7.515 3.364-7.515 7.515s3.365 7.515 7.515 7.515h74.689c1.586 0 2.877 1.291 2.877 2.877v73.821c0 1.587-1.291 2.878-2.877 2.878h-137.313c-1.587 0-2.877-1.291-2.877-2.878v-73.821c0-1.586 1.291-2.877 2.877-2.877h32.565c4.15 0 7.515-3.364 7.515-7.515s-3.364-7.515-7.515-7.515h-32.565c-9.874 0-17.907 8.032-17.907 17.906v73.821c0 9.874 8.033 17.907 17.907 17.907h137.313c9.874 0 17.906-8.033 17.906-17.907v-73.821c0-9.874-8.032-17.906-17.906-17.906z"/><path d="m211.987 268.133c0-4.151-3.364-7.515-7.515-7.515h-20.438c-4.15 0-7.515 3.364-7.515 7.515s3.365 7.515 7.515 7.515h20.438c4.15 0 7.515-3.364 7.515-7.515z"/><path d="m327.966 260.619h-20.437c-4.151 0-7.515 3.364-7.515 7.515s3.364 7.515 7.515 7.515h20.437c4.151 0 7.515-3.364 7.515-7.515s-3.364-7.515-7.515-7.515z"/><path d="m279.326 260.619h-46.652c-4.15 0-7.515 3.364-7.515 7.515s3.365 7.515 7.515 7.515h46.652c4.151 0 7.515-3.364 7.515-7.515s-3.364-7.515-7.515-7.515z"/><path d="m217.328 310.575h-19.133c-4.15 0-7.515 3.364-7.515 7.515s3.364 7.515 7.515 7.515h19.133c4.15 0 7.515-3.364 7.515-7.515s-3.365-7.515-7.515-7.515z"/><path d="m265.567 310.575h-19.133c-4.15 0-7.515 3.364-7.515 7.515s3.364 7.515 7.515 7.515h19.133c4.151 0 7.515-3.364 7.515-7.515s-3.365-7.515-7.515-7.515z"/><path d="m313.806 310.575h-19.132c-4.151 0-7.515 3.364-7.515 7.515s3.364 7.515 7.515 7.515h19.132c4.151 0 7.515-3.364 7.515-7.515s-3.365-7.515-7.515-7.515z"/><path d="m217.328 341.026h-19.133c-4.15 0-7.515 3.364-7.515 7.515s3.364 7.515 7.515 7.515h19.133c4.15 0 7.515-3.364 7.515-7.515s-3.365-7.515-7.515-7.515z"/><path d="m265.567 341.026h-19.133c-4.15 0-7.515 3.364-7.515 7.515s3.364 7.515 7.515 7.515h19.133c4.151 0 7.515-3.364 7.515-7.515s-3.365-7.515-7.515-7.515z"/><path d="m313.806 341.026h-19.132c-4.151 0-7.515 3.364-7.515 7.515s3.364 7.515 7.515 7.515h19.132c4.151 0 7.515-3.364 7.515-7.515s-3.365-7.515-7.515-7.515z"/><path d="m217.328 371.476h-19.133c-4.15 0-7.515 3.364-7.515 7.515s3.364 7.515 7.515 7.515h19.133c4.15 0 7.515-3.364 7.515-7.515s-3.365-7.515-7.515-7.515z"/><path d="m265.567 371.476h-19.133c-4.15 0-7.515 3.364-7.515 7.515s3.364 7.515 7.515 7.515h19.133c4.151 0 7.515-3.364 7.515-7.515s-3.365-7.515-7.515-7.515z"/><path d="m313.806 371.476h-19.132c-4.151 0-7.515 3.364-7.515 7.515s3.364 7.515 7.515 7.515h19.132c4.151 0 7.515-3.364 7.515-7.515s-3.365-7.515-7.515-7.515z"/><path d="m217.328 401.926h-19.133c-4.15 0-7.515 3.364-7.515 7.515s3.364 7.515 7.515 7.515h19.133c4.15 0 7.515-3.364 7.515-7.515-.001-4.151-3.365-7.515-7.515-7.515z"/><path d="m265.567 401.926h-19.133c-4.15 0-7.515 3.364-7.515 7.515s3.364 7.515 7.515 7.515h19.133c4.151 0 7.515-3.364 7.515-7.515-.001-4.151-3.365-7.515-7.515-7.515z"/><path d="m313.806 401.926h-19.132c-4.151 0-7.515 3.364-7.515 7.515s3.364 7.515 7.515 7.515h19.132c4.151 0 7.515-3.364 7.515-7.515-.001-4.151-3.365-7.515-7.515-7.515z"/><path d="m344.918 54.106h-19.047v-46.591c0-2.686-1.434-5.167-3.76-6.51-2.326-1.342-5.193-1.34-7.517.005l-27.418 15.86-27.417-15.86c-2.329-1.346-5.198-1.347-7.525 0l-27.413 15.86-27.414-15.86c-2.325-1.344-5.191-1.347-7.517-.005-2.327 1.342-3.76 3.824-3.76 6.51v46.591h-19.047c-20.718 0-37.573 16.855-37.573 37.573v108.491c0 26.097 4.717 51.693 14.02 76.077 8.648 22.665 13.033 46.459 13.033 70.719v82.372c0 18.145 12.929 33.326 30.059 36.817v18.29c0 15.193 12.361 27.554 27.554 27.554h83.652c15.193 0 27.554-12.361 27.554-27.554v-18.29c17.129-3.491 30.059-18.672 30.059-36.817v-82.372c0-24.26 4.385-48.054 13.033-70.719 9.302-24.384 14.02-49.98 14.02-76.077v-108.49c-.003-20.719-16.858-37.574-37.576-37.574zm-143.759-33.562 19.899 11.512c2.328 1.346 5.198 1.346 7.525 0l27.413-15.859 27.417 15.859c2.327 1.346 5.198 1.346 7.525 0l19.903-11.512v62.035h-109.682zm166.303 179.627c0 24.259-4.385 48.053-13.032 70.719-9.303 24.384-14.021 49.979-14.021 76.077v82.372c0 12.431-10.113 22.544-22.544 22.544h-31.809c-4.151 0-7.515 3.364-7.515 7.515s3.364 7.515 7.515 7.515h24.294v17.534c0 6.906-5.618 12.524-12.525 12.524h-83.652c-6.906 0-12.525-5.618-12.525-12.524v-17.534h54.347c4.15 0 7.514-3.364 7.514-7.515s-3.364-7.515-7.514-7.515h-61.862c-12.431 0-22.544-10.113-22.544-22.544v-82.372c0-26.098-4.717-51.694-14.02-76.077-8.648-22.666-13.033-46.46-13.033-70.719v-108.491c0-12.43 10.113-22.544 22.544-22.544h19.047v13.443h-5.813c-4.15 0-7.515 3.364-7.515 7.515s3.365 7.515 7.515 7.515h151.368c4.151 0 7.515-3.364 7.515-7.515s-3.364-7.515-7.515-7.515h-5.813v-13.443h19.047c12.431 0 22.544 10.114 22.544 22.544v108.491z"/></g></g></svg>