<svg id="Capa_1" enable-background="new 0 0 512 512" height="512" viewBox="0 0 512 512" width="512" xmlns="http://www.w3.org/2000/svg" xmlns:xlink="http://www.w3.org/1999/xlink"><linearGradient id="SVGID_1_" gradientUnits="userSpaceOnUse" x1="74.981" x2="437.019" y1="74.981" y2="437.019"><stop offset="0" stop-color="#e27266"/><stop offset="1" stop-color="#c7475a"/></linearGradient><linearGradient id="SVGID_2_" gradientUnits="userSpaceOnUse" x1="223.319" x2="288.681" y1="265.581" y2="330.944"><stop offset="0" stop-color="#efbeaa"/><stop offset="1" stop-color="#e19480"/></linearGradient><linearGradient id="SVGID_3_" gradientUnits="userSpaceOnUse" x1="204.367" x2="319.026" y1="159.32" y2="273.979"><stop offset="0" stop-color="#f7e0ba"/><stop offset="1" stop-color="#efbeaa"/></linearGradient><linearGradient id="SVGID_4_" gradientUnits="userSpaceOnUse" x1="170.228" x2="341.772" y1="304.497" y2="476.041"><stop offset="0" stop-color="#94e5cf"/><stop offset="1" stop-color="#5a9898"/></linearGradient><linearGradient id="SVGID_5_" gradientUnits="userSpaceOnUse" x1="203.545" x2="313.377" y1="107.823" y2="217.655"><stop offset="0" stop-color="#54747f"/><stop offset="1" stop-color="#455e72"/></linearGradient><g><circle cx="256" cy="256" fill="url(#SVGID_1_)" r="256"/><g><path d="m295.375 272.275v51.975l-39.375 39.375-39.375-39.375v-51.975l14.174 6.89c15.554 7.481 34.847 7.481 50.401 0z" fill="url(#SVGID_2_)"/><path d="m285.531 127.375c-13.387 0-25.594 5.119-34.65 14.372-11.615 11.419-30.121 25.003-53.747 25.003l-19.884 19.688v39.375c0 30.318 17.719 58.078 44.888 71.072 10.434 5.119 21.853 7.678 33.862 7.678s23.428-2.56 33.666-7.678c27.365-12.993 45.084-40.753 45.084-71.072v-29.531c0-27.17-22.05-68.907-49.219-68.907z" fill="url(#SVGID_3_)"/><g><path d="m216.625 206.125h19.687v19.688h-19.687z" fill="#54747f"/><path d="m275.688 206.125h19.688v19.688h-19.688z" fill="#455e72"/></g><path d="m305.219 304.562h-9.844l-39.375 39.376-39.375-39.375h-9.844c-48.825 0-88.594 39.768-88.594 88.594v30.843h137.813 137.812v-30.844c0-48.825-39.769-88.594-88.593-88.594z" fill="url(#SVGID_4_)"/><path d="m334.75 166.75v29.531c0-27.169-22.05-49.219-49.219-49.219-11.005 0-21.217 3.458-29.531 9.837-1.798 1.378-3.511 2.887-5.119 4.535-11.616 11.419-30.122 25.003-53.747 25.003h-19.884v-19.687c0-43.509 35.241-78.75 78.75-78.75s78.75 35.241 78.75 78.75z" fill="url(#SVGID_5_)"/></g></g></svg>